<svg viewBox="0 0 165 64" xmlns="http://www.w3.org/2000/svg"><path d="M140.01 30.36v9.27l.02.35-.35-.02h-4.5l-.35.02.02-.35v-8.46c0-2.46-1.42-3.64-3.17-3.64s-3.17 1.18-3.17 3.64v8.46l.02.35-.35-.02h-4.5l-.36.02.02-.35v-8.46a8.33 8.33 0 018.34-8.33 8.3 8.3 0 015.17 1.81l.1.3.1-.3a9.03 9.03 0 01.46-.45l.3-.07-.28-.13a7.7 7.7 0 01-1.98-5.16V.35l-.02-.35.35.02h4.5l.36-.02-.03.35v18.49c0 2 1.16 2.96 2.58 2.96 1.43 0 2.58-.96 2.58-2.96V.35l-.02-.35.35.02h4.5l.36-.02-.03.35v18.49a7.7 7.7 0 01-1.98 5.16l-.28.13.3.07.46.46.1.3.1-.3a8.3 8.3 0 015.18-1.82 8.33 8.33 0 018.33 8.33v8.46l.02.35-.35-.02h-4.5l-.36.02.03-.35v-8.46c0-2.46-1.42-3.64-3.17-3.64s-3.17 1.18-3.17 3.64v8.46l.02.35-.36-.02h-4.5l-.35.02.02-.35v-9.27c0-2.55-1.46-3.77-3.28-3.77s-3.28 1.22-3.28 3.77zM38.66 60.57c-.66.52-1.47.97-2.7.97-1.64 0-3.03-1.18-3.03-4.4 0-3.3 1.14-4.83 3-4.83 1.25 0 2.13.45 2.73 1.12zm0 2.2h4.76v-.5l-1.76-.42V45.66h-4.89v.56l1.9.52v5.47a5.78 5.78 0 00-3.77-1.26c-2.97 0-5.16 2.6-5.16 6.23 0 3.7 2 5.86 5.19 5.86a5.5 5.5 0 003.73-1.42zm44.74-17.1v.52l-1.78.47v15.12l1.78.47v.52h-7.43v-.55l2.39-.44V49.74L72.8 62.78h-1.29l-5.46-13.1v12.1l2.3.4v.6h-5.37v-.53l1.52-.45V46.63l-1.52-.44v-.53h4.79l5.31 13.1 5.47-13.1m12.32 6.13c2.05 0 3.13 2.28 3.13 5.17 0 2.87-1.08 5.24-3.13 5.24-2.02 0-3.13-2.37-3.13-5.24 0-2.86 1.1-5.17 3.13-5.17zm0-.84c-3.36 0-6.39 2.34-6.39 6.04 0 3.6 3.05 6.05 6.4 6.05 3.36 0 6.4-2.45 6.4-6.05 0-3.7-3.04-6.04-6.4-6.04zm61.9 9.9c-.6.4-1.13.8-2.08.8-1.52.02-1.94-.93-1.94-2.03 0-1.13.76-1.9 2.15-2.13l1.87-.2zm0-6.33v1.97l-2.65.13c-2.58.08-4.18 1.48-4.18 3.4 0 1.94 1.44 3.02 3.36 3.02 1.58 0 2.71-.76 3.47-1.32v1.05h4.36v-.5l-1.41-.42v-7.83c0-1.7-1.13-3.07-3.68-3.07-2.6 0-4.24.73-5.16 1.13v2.7h1.3l.43-2.25c.3-.12 1.1-.4 2.4-.3 1.55.13 1.73 1.21 1.76 2.3zM165 62.28v.5h-6.52v-.5l1.76-.42v-15.2l-1.76-.44v-.56h4.76v16.2M14.3 23.88l-2.55-.5v-.55h5.91v.53l-1.81.52v10.35c0 4.31-2.35 6.06-7.16 6.06-4.93 0-6.93-1.89-6.93-5.78v-10.7L0 23.37v-.53h7.57v.58L5 23.87v10.49c0 3.17 1.08 4.73 4.39 4.73 3.59 0 4.9-1.62 4.9-5.02V23.89zm10.18 15.57v.5H18.1v-.5l1.74-.42v-9.78l-1.58-.45v-.55h4.57v1.78c.53-.44 2.19-1.91 4.32-1.91 2.2 0 3.33 1.23 3.33 3.39V39l1.69.42v.53h-6.2v-.53l1.54-.4v-7.17c0-1.13-.34-2.13-1.76-2.13-1.26 0-2.55.9-2.92 1.13v8.18zm13.48-.42l1.73.42v.5H33.2v-.5l1.76-.42v-9.78l-1.58-.45v-.55h4.58m.16-4.03c0 .9-.8 1.63-1.74 1.63-.92 0-1.73-.73-1.73-1.63 0-.89.81-1.65 1.73-1.65.95 0 1.74.76 1.74 1.66zm51.47 14.8l1.74.43v.5h-6.5v-.5l1.77-.42v-9.78l-1.58-.45v-.55h4.57m.16-4.03c0 .9-.79 1.63-1.73 1.63-.92 0-1.74-.73-1.74-1.63 0-.89.82-1.65 1.74-1.65.94 0 1.73.76 1.73 1.66zm-49.1 4.84l-.85-.34v-.47h5.68v.47l-1.81.45 2.6 7.12 2.59-7.17-1.58-.4v-.47h3.9v.47l-.96.45-4.45 10.96h-.97m14.62-7.68h-4.66c.27-2 1.06-3.47 2.45-3.47 1.58 0 2.1 1.84 2.2 3.47zm-4.79.92h7.73c-.08-3.23-1.76-5.25-5.15-5.25-3.34 0-5.81 2.89-5.81 6.04 0 3.66 2.4 6.05 5.84 6.05 2.94 0 4.47-1.16 5.36-1.81l-.5-.8c-.68.43-2.05 1.35-4.31 1.22-2.26-.16-3.4-2.53-3.16-5.45zm27.86-4.65l-.27 2.87h-1.08l-.26-1.95c-.4-.21-.92-.66-2.08-.66-.94 0-1.68.5-1.68 1.53 0 1.2 1.34 1.68 2.68 2.29 1.3.55 3.4 1.34 3.4 3.41 0 2.37-1.95 4-4.29 4-2.16 0-3.42-.5-3.79-.63l-.2-3.18 1.1-.1.63 2.15c.31.23 1.18.92 2.23.9 1.5 0 2.21-.8 2.21-1.93 0-1.34-1.87-1.92-3.1-2.5-1.16-.55-2.94-1.05-2.94-3.44 0-1.97 1.63-3.36 3.83-3.36 1.9 0 3.08.44 3.6.6zm28.76-4.34l-1.13-1.68-4.02 3.16.65.94m2.29 5.65h-4.65c.26-2 1.05-3.47 2.44-3.47 1.58 0 2.1 1.84 2.21 3.47zm-4.78.92h7.73c-.08-3.23-1.77-5.25-5.16-5.25-3.34 0-5.8 2.89-5.8 6.04 0 3.66 2.38 6.05 5.83 6.05 2.94 0 4.47-1.16 5.36-1.81l-.5-.8c-.68.43-2.05 1.35-4.3 1.22-2.27-.16-3.4-2.53-3.16-5.45zm-32-5.24c-1.69 0-2.9 1.36-3.58 2.88h-.06v-2.76h-4.76v.48l1.76.52v9.78l-1.76.42v.5h7.31v-.58l-2.55-.42v-6.64c.7-1.54 1.73-2.16 2.38-2.16.5 0 .68.1 1.06.43.13.1.64.25.94.11.57-.24.73-.66.73-1.28 0-.67-.66-1.28-1.47-1.28zm32.6 34.13v.5h-6.4v-.5l1.74-.42v-9.77l-1.57-.45v-.55h4.57v1.78c.53-.44 2.18-1.91 4.31-1.91 2.2 0 3.34 1.23 3.34 3.39v7.49l1.68.42v.53h-6.2v-.53l1.55-.4v-7.17c0-1.13-.34-2.13-1.76-2.13-1.26 0-2.55.9-2.92 1.13v8.17zm26.24-11.3c-1.68 0-2.9 1.34-3.58 2.87h-.05v-2.76h-4.76v.48l1.76.52v9.77l-1.76.42v.5h7.3v-.57l-2.55-.43v-6.63c.7-1.54 1.73-2.16 2.39-2.16.49 0 .67.1 1.05.43.14.1.64.25.94.11.57-.24.73-.66.73-1.28 0-.67-.65-1.28-1.47-1.28zm-31-12.33c-.43.3-.88.51-1.55.51-1.05 0-1.4-.77-1.4-2.5v-7.37l3-.44v-.58h-3v-5.42h-.97c-.2 3.1-1.3 5.14-4.06 5.42h-.46v.58l2.5.44v7.53c0 2.38.58 3.4 2.81 3.4 1.61 0 2.9-.6 3.43-1.1zm21.24 22.82c-.44.3-.89.51-1.55.51-1.06 0-1.4-.77-1.4-2.5V52.1l3-.44v-.58h-3v-5.42h-.98c-.2 3.1-1.3 5.13-4.06 5.42h-.45v.58l2.5.44v7.53c0 2.38.57 3.4 2.8 3.4 1.62 0 2.9-.6 3.43-1.1zm-69.03-6.18h-4.65c.26-2 1.05-3.47 2.45-3.47 1.57 0 2.1 1.84 2.2 3.47zm-4.78.92h7.73c-.08-3.23-1.76-5.25-5.15-5.25-3.34 0-5.81 2.89-5.81 6.04 0 3.66 2.39 6.05 5.83 6.05 2.95 0 4.47-1.16 5.36-1.81l-.5-.8c-.68.43-2.05 1.35-4.3 1.22-2.27-.16-3.4-2.53-3.16-5.45zm93.33-.92h-4.65c.26-2 1.05-3.47 2.44-3.47 1.58 0 2.1 1.84 2.21 3.47zm2.2-8.07l-1.12-1.68-4.02 3.16.65.94zm-6.98 9h7.73c-.08-3.24-1.77-5.26-5.16-5.26-3.34 0-5.8 2.89-5.8 6.04 0 3.66 2.39 6.05 5.83 6.05 2.94 0 4.47-1.16 5.36-1.82l-.5-.78c-.68.42-2.05 1.34-4.3 1.2-2.27-.15-3.4-2.52-3.16-5.44z" fill="#fff"/></svg>